<svg width="188" height="58" viewBox="0 0 188 58" fill="none" xmlns="http://www.w3.org/2000/svg">
<g filter="url(#filter0_d)">
<path d="M17.1926 24.1539C17.1926 23.2386 16.8693 22.5387 16.2227 22.054C15.576 21.5587 14.4121 21.0418 12.7308 20.5034C11.0495 19.9542 9.7185 19.4157 8.73776 18.888C6.06497 17.445 4.72858 15.5014 4.72858 13.0569C4.72858 11.7862 5.08423 10.6555 5.79554 9.66479C6.51762 8.66332 7.54686 7.88259 8.88326 7.32262C10.2304 6.76266 11.7393 6.48267 13.4098 6.48267C15.091 6.48267 16.5891 6.78958 17.9039 7.40338C19.2187 8.00642 20.2372 8.86253 20.9594 9.9717C21.6922 11.0809 22.0586 12.3408 22.0586 13.7515H17.2088C17.2088 12.6746 16.8693 11.84 16.1903 11.2478C15.5113 10.6447 14.5576 10.3432 13.3289 10.3432C12.1434 10.3432 11.222 10.5963 10.5645 11.1024C9.9071 11.5977 9.57839 12.2546 9.57839 13.0731C9.57839 13.8377 9.961 14.4783 10.7262 14.9952C11.5022 15.5121 12.6392 15.9968 14.1372 16.449C16.8962 17.2782 18.9063 18.3065 20.1671 19.5342C21.4281 20.7618 22.0586 22.291 22.0586 24.1216C22.0586 26.1569 21.288 27.756 19.7469 28.9191C18.2057 30.0712 16.131 30.6474 13.5229 30.6474C11.7123 30.6474 10.0634 30.3189 8.5761 29.662C7.08883 28.9945 5.95181 28.0844 5.16505 26.9323C4.38908 25.7799 4.0011 24.4447 4.0011 22.9263H8.86709C8.86709 25.5215 10.419 26.8191 13.5229 26.8191C14.6761 26.8191 15.576 26.5877 16.2227 26.1245C16.8693 25.6508 17.1926 24.9938 17.1926 24.1539ZM63.1851 26.4315H73.483V30.3243H58.3353V6.80573H63.1851V26.4315ZM89.8915 25.4785H81.3881L79.7716 30.3243H74.6146L83.3766 6.80573H87.8708L96.6813 30.3243H91.5243L89.8915 25.4785ZM82.6976 21.5533H88.5821L85.6237 12.75L82.6976 21.5533ZM107.593 21.7148H103.73V30.3243H98.8798V6.80573H107.626C110.406 6.80573 112.551 7.42493 114.06 8.66332C115.569 9.90169 116.323 11.6516 116.323 13.9131C116.323 15.5175 115.973 16.8582 115.272 17.935C114.583 19.0012 113.532 19.8518 112.12 20.4872L117.212 30.0981V30.3243H112.007L107.593 21.7148ZM103.73 17.7896H107.642C108.86 17.7896 109.803 17.4828 110.471 16.869C111.139 16.2445 111.473 15.3883 111.473 14.3007C111.473 13.1915 111.155 12.3192 110.519 11.6839C109.894 11.0485 108.93 10.7309 107.626 10.7309H103.73V17.7896ZM142.431 20.1319H133.12V26.4315H144.048V30.3243H128.27V6.80573H144.016V10.7309H133.12V16.336H142.431V20.1319ZM155.316 14.9145L159.729 6.80573H165.306L158.453 18.4681L165.484 30.3243H159.842L155.316 22.0863L150.789 30.3243H145.147L152.18 18.4681L145.325 6.80573H150.902L155.316 14.9145ZM182.103 20.1319H172.791V26.4315H183.72V30.3243H167.941V6.80573H183.686V10.7309H172.791V16.336H182.103V20.1319Z" fill="white"/>
<path d="M40.2453 10.1857C34.7384 10.1857 30.2581 14.6624 30.2581 20.1647C30.2581 25.6672 34.7384 30.1439 40.2453 30.1439C45.7523 30.1439 50.2325 25.6673 50.2325 20.1647C50.2325 14.6624 45.7523 10.1857 40.2453 10.1857ZM40.2453 28.3869C35.7078 28.3869 32.0165 24.6985 32.0165 20.1647C32.0165 15.6312 35.7078 11.9427 40.2453 11.9427C44.7826 11.9427 48.4739 15.6312 48.4739 20.1647C48.4739 24.6983 44.7826 28.3869 40.2453 28.3869Z" fill="white"/>
<path d="M40.246 3.62555C39.76 3.62555 39.3662 4.01886 39.3662 4.5041V7.96326C39.3662 8.4486 39.7601 8.84191 40.246 8.84191C40.7319 8.84191 41.1257 8.4486 41.1257 7.96336V4.5041C41.1257 4.01895 40.7319 3.62555 40.246 3.62555Z" fill="white"/>
<path d="M51.9502 8.46982C51.6067 8.12668 51.0501 8.12668 50.7066 8.46982L48.2585 10.9159C47.9151 11.2591 47.9151 11.8152 48.2585 12.1583C48.4301 12.3299 48.6551 12.4156 48.8802 12.4156C49.1052 12.4156 49.3302 12.3299 49.502 12.1583L51.95 9.71214C52.2935 9.36911 52.2935 8.81287 51.9502 8.46982Z" fill="white"/>
<path d="M32.2326 28.1713C31.8891 27.8284 31.3324 27.8282 30.9889 28.1713L28.5407 30.6174C28.1972 30.9606 28.1972 31.5168 28.5406 31.86C28.7125 32.0316 28.9373 32.1173 29.1625 32.1173C29.3875 32.1173 29.6125 32.0316 29.7841 31.86L32.2323 29.4138C32.5758 29.0707 32.5758 28.5144 32.2326 28.1713Z" fill="white"/>
<path d="M55.9192 19.2863H52.4569C51.9715 19.2863 51.5778 19.6795 51.5778 20.1648C51.5778 20.6499 51.9712 21.0434 52.4569 21.0434H55.9192C56.4049 21.0434 56.7985 20.65 56.7985 20.1648C56.7984 19.6795 56.4048 19.2863 55.9192 19.2863Z" fill="white"/>
<path d="M28.0339 19.2863H24.5719C24.0862 19.2863 23.6926 19.6795 23.6926 20.1648C23.6926 20.6499 24.0862 21.0434 24.5719 21.0434H28.0339C28.5198 21.0434 28.9132 20.65 28.9132 20.1648C28.9132 19.6795 28.5198 19.2863 28.0339 19.2863Z" fill="white"/>
<path d="M32.2326 10.9159L29.7844 8.46987C29.4412 8.12673 28.8844 8.12692 28.5411 8.46987C28.1976 8.81302 28.1976 9.36925 28.5412 9.7124L30.9893 12.1585C31.1609 12.33 31.3859 12.4159 31.6109 12.4159C31.8359 12.4159 32.0609 12.3301 32.2327 12.1585C32.576 11.8153 32.576 11.259 32.2326 10.9159Z" fill="white"/>
<path d="M51.9502 30.6175L49.5021 28.1714C49.1588 27.8282 48.6021 27.8282 48.2585 28.1714C47.9151 28.5145 47.9151 29.0707 48.2585 29.4137L50.7066 31.8598C50.8783 32.0314 51.1033 32.1172 51.3284 32.1172C51.5534 32.1172 51.7784 32.0314 51.9502 31.8598C52.2937 31.5167 52.2937 30.9606 51.9502 30.6175Z" fill="white"/>
<path d="M63.2887 48.7499L63.5329 46.9708L63.6441 46.1609L68.5092 46.8276C68.9902 46.8937 69.4337 46.5575 69.4998 46.0767C69.5657 45.5958 69.2293 45.1528 68.7481 45.0869L63.883 44.4202L64.4853 40.0331L69.3503 40.6998C69.8313 40.7658 70.2749 40.4296 70.3409 39.9488C70.407 39.4679 70.0704 39.025 69.5893 38.959L64.7242 38.2923L64.8354 37.4824L65.0796 35.7033C65.1457 35.2225 64.8091 34.7795 64.328 34.7136C63.847 34.6476 63.4033 34.9838 63.3374 35.4646L63.2127 36.3733L58.9099 35.7835C56.1077 35.3995 53.4956 37.1404 52.7073 39.7669L44.9621 38.7055C42.4269 38.358 40.647 36.0144 40.9948 33.4812L41.2759 31.4335C41.3419 30.9527 41.0054 30.5097 40.5242 30.4437C40.0431 30.3778 39.5997 30.7138 39.5336 31.1948L39.2526 33.2425C38.7731 36.7356 41.2271 39.967 44.723 40.4462L52.4683 41.5076C52.5197 44.2491 54.5662 46.6286 57.3684 47.0126L61.6711 47.6023L61.5464 48.5109C61.4805 48.9917 61.8169 49.4347 62.2981 49.5007C62.7793 49.5667 63.2228 49.2306 63.2887 48.7499ZM57.6075 45.272C55.4697 44.9789 53.9692 43.0028 54.2623 40.867C54.5555 38.731 56.5333 37.2315 58.671 37.5245L62.9738 38.1142L61.9103 45.8618L57.6075 45.2721V45.272Z" fill="white"/>
<path d="M107.343 3.13544C107.828 3.13544 108.222 2.74211 108.222 2.25691C108.222 1.77169 107.828 1.37836 107.343 1.37836C106.857 1.37836 106.463 1.77169 106.463 2.25691C106.463 2.74211 106.857 3.13544 107.343 3.13544Z" fill="white"/>
<path d="M103.204 3.13544C103.69 3.13544 104.084 2.74211 104.084 2.25691C104.084 1.77169 103.69 1.37836 103.204 1.37836C102.718 1.37836 102.324 1.77169 102.324 2.25691C102.324 2.74211 102.718 3.13544 103.204 3.13544Z" fill="white"/>
</g>
<defs>
<filter id="filter0_d" x="-1" y="0" width="190.095" height="59" filterUnits="userSpaceOnUse" color-interpolation-filters="sRGB">
<feFlood flood-opacity="0" result="BackgroundImageFix"/>
<feColorMatrix in="SourceAlpha" type="matrix" values="0 0 0 0 0 0 0 0 0 0 0 0 0 0 0 0 0 0 127 0"/>
<feOffset dy="4"/>
<feGaussianBlur stdDeviation="2"/>
<feColorMatrix type="matrix" values="0 0 0 0 0 0 0 0 0 0 0 0 0 0 0 0 0 0 0.25 0"/>
<feBlend mode="normal" in2="BackgroundImageFix" result="effect1_dropShadow"/>
<feBlend mode="normal" in="SourceGraphic" in2="effect1_dropShadow" result="shape"/>
</filter>
</defs>
</svg>
